<?xml version="1.0" encoding="UTF-8"?>
<svg width="16px" height="16px" viewBox="0 0 16 16" version="1.1" xmlns="http://www.w3.org/2000/svg" xmlns:xlink="http://www.w3.org/1999/xlink">
    <!-- Generator: Sketch 47.1 (45422) - http://www.bohemiancoding.com/sketch -->
    <title>Facebook</title>
    <desc>Created with Sketch.</desc>
    <defs></defs>
    <g id="Assets" stroke="none" stroke-width="1" fill="none" fill-rule="evenodd">
        <g id="Artboard" transform="translate(0.000000, -48.000000)" fill="#FFFFFF">
            <path d="M8.54611842,64 L0.883077174,64 C0.395224219,64 0,63.6045305 0,63.1168676 L0,48.8830703 C0,48.3952832 0.395286302,48 0.883077174,48 L15.1169849,48 C15.6046516,48 16,48.3952832 16,48.8830703 L16,63.1168676 C16,63.6045926 15.6045895,64 15.1169849,64 L11.0397684,64 L11.0397684,57.8039182 L13.1195071,57.8039182 L13.4309184,55.3891952 L11.0397684,55.3891952 L11.0397684,53.8475471 C11.0397684,53.1484291 11.2339039,52.6720032 12.2364299,52.6720032 L13.5151038,52.6714445 L13.5151038,50.5116968 C13.293962,50.4822694 12.5349278,50.4165234 11.6518507,50.4165234 C9.80827807,50.4165234 8.54611842,51.5418421 8.54611842,53.608403 L8.54611842,55.3891952 L6.4610406,55.3891952 L6.4610406,57.8039182 L8.54611842,57.8039182 L8.54611842,64 L8.54611842,64 Z" id="Facebook"></path>
        </g>
    </g>
</svg>