<?xml version="1.0" encoding="UTF-8"?>
<svg width="16px" height="16px" viewBox="0 0 16 16" version="1.1" xmlns="http://www.w3.org/2000/svg" xmlns:xlink="http://www.w3.org/1999/xlink">
    <!-- Generator: Sketch 47.1 (45422) - http://www.bohemiancoding.com/sketch -->
    <title>Github-black</title>
    <desc>Created with Sketch.</desc>
    <defs></defs>
    <g id="Registation-flow" stroke="none" stroke-width="1" fill="none" fill-rule="evenodd">
        <g id="Step-1" transform="translate(-443.000000, -284.000000)" fill="#FFFFFF">
            <g id="Group-4" transform="translate(406.000000, 160.000000)">
                <path d="M44.9995,124 C40.582,124 37,127.595697 37,132.032215 C37,135.580224 39.292,138.59061 42.4715,139.652804 C42.8715,139.726595 43.0175,139.478616 43.0175,139.265776 C43.0175,139.075023 43.0105,138.570029 43.0065,137.899883 C40.781,138.385299 40.3115,136.823131 40.3115,136.823131 C39.948,135.895468 39.4235,135.648493 39.4235,135.648493 C38.697,135.150025 39.4785,135.160065 39.4785,135.160065 C40.281,135.216789 40.7035,135.987833 40.7035,135.987833 C41.4175,137.215179 42.576,136.86078 43.032,136.654967 C43.1045,136.135918 43.3115,135.782021 43.54,135.581228 C41.7635,135.378427 39.896,134.689708 39.896,131.612056 C39.896,130.735093 40.2075,130.018263 40.7195,129.456545 C40.637,129.253242 40.3625,128.437019 40.7975,127.331153 C40.7975,127.331153 41.4695,127.115301 42.9975,128.154403 C43.636,127.9762 44.32,127.887349 45.0005,127.883835 C45.68,127.887349 46.3645,127.9762 47.0035,128.154403 C48.5305,127.115301 49.201,127.331153 49.201,127.331153 C49.6375,128.437019 49.363,129.253242 49.2805,129.456545 C49.7935,130.018263 50.103,130.735093 50.103,131.612056 C50.103,134.697237 48.2325,135.376419 46.4505,135.575204 C46.7375,135.823183 46.9935,136.313118 46.9935,137.062577 C46.9935,138.136316 46.9835,139.002235 46.9835,139.265776 C46.9835,139.480624 47.1275,139.730611 47.5335,139.6518 C50.71,138.587598 53,135.57922 53,132.032215 C53,127.595697 49.418,124 44.9995,124" id="Github"></path>
            </g>
        </g>
    </g>
</svg>