<?xml version="1.0" encoding="UTF-8"?>
<svg width="14px" height="11px" viewBox="0 0 14 11" version="1.1" xmlns="http://www.w3.org/2000/svg" xmlns:xlink="http://www.w3.org/1999/xlink">
    <!-- Generator: Sketch 47.1 (45422) - http://www.bohemiancoding.com/sketch -->
    <title>Shape</title>
    <desc>Created with Sketch.</desc>
    <defs></defs>
    <g id="Assets" stroke="none" stroke-width="1" fill="none" fill-rule="evenodd">
        <g id="Artboard" transform="translate(-56.000000, -139.000000)" fill-rule="nonzero" fill="#E4E5E8">
            <path d="M57.4,139 L68.6,139 C69.3731986,139 70,139.615608 70,140.375 L70,148.625 C70,149.384392 69.3731986,150 68.6,150 L57.4,150 C56.623,150 56,149.38125 56,148.625 L56,140.375 C56,139.611875 56.623,139 57.4,139 L57.4,139 Z M63,143.8125 L68.6,140.375 L57.4,140.375 L63,143.8125 L63,143.8125 Z M57.4,148.625 L68.6,148.625 L68.6,142.004375 L63,145.435 L57.4,142.004375 L57.4,148.625 Z" id="Shape"></path>
        </g>
    </g>
</svg>