<?xml version="1.0" encoding="UTF-8"?>
<svg width="15px" height="10px" viewBox="0 0 15 10" version="1.1" xmlns="http://www.w3.org/2000/svg" xmlns:xlink="http://www.w3.org/1999/xlink">
    <!-- Generator: Sketch 47.1 (45422) - http://www.bohemiancoding.com/sketch -->
    <title>Shape</title>
    <desc>Created with Sketch.</desc>
    <defs></defs>
    <g id="Assets" stroke="none" stroke-width="1" fill="none" fill-rule="evenodd">
        <g id="Artboard" transform="translate(-52.000000, -106.000000)" fill-rule="nonzero" fill="#E0E2E5">
            <path d="M59.5,109 C58.3703266,109 57.4545455,109.895431 57.4545455,111 C57.4545455,112.104569 58.3703266,113 59.5,113 C60.6296734,113 61.5454545,112.104569 61.5454545,111 C61.5454545,109.895431 60.6296734,109 59.5,109 L59.5,109 Z M59.5,114.333333 C57.6172111,114.333333 56.0909091,112.840949 56.0909091,111 C56.0909091,109.159051 57.6172111,107.666667 59.5,107.666667 C61.3827889,107.666667 62.9090909,109.159051 62.9090909,111 C62.9090909,112.840949 61.3827889,114.333333 59.5,114.333333 L59.5,114.333333 Z M59.5,106 C56.0909091,106 53.1795455,108.073333 52,111 C53.1795455,113.926667 56.0909091,116 59.5,116 C62.9090909,116 65.8204545,113.926667 67,111 C65.8204545,108.073333 62.9090909,106 59.5,106 Z" id="Shape"></path>
        </g>
    </g>
</svg>