<?xml version="1.0" encoding="UTF-8"?>
<svg width="14px" height="14px" viewBox="0 0 14 14" version="1.1" xmlns="http://www.w3.org/2000/svg" xmlns:xlink="http://www.w3.org/1999/xlink">
    <!-- Generator: Sketch 47.1 (45422) - http://www.bohemiancoding.com/sketch -->
    <title>Shape</title>
    <desc>Created with Sketch.</desc>
    <defs></defs>
    <g id="Assets" stroke="none" stroke-width="1" fill="none" fill-rule="evenodd">
        <g id="Artboard" transform="translate(-30.000000, -82.000000)" fill-rule="nonzero" fill="#000000">
            <path d="M41.1188028,92.762162 C40.9369859,92.2027254 40.4125141,91.7901408 39.7901408,91.7901408 L39.0908451,91.7901408 L39.0908451,89.6922535 C39.0908451,89.3060431 38.7777597,88.9929577 38.3915493,88.9929577 L34.1957746,88.9929577 L34.1957746,87.5943662 L35.5943662,87.5943662 C35.9805766,87.5943662 36.293662,87.2812808 36.293662,86.8950704 L36.293662,85.4964789 L37.6922535,85.4964789 C38.4646743,85.4964789 39.0908451,84.8703081 39.0908451,84.0978873 L39.0908451,83.8111761 C41.1397817,84.6363451 42.5873239,86.6433239 42.5873239,88.9929577 C42.5873239,90.447493 42.0278873,91.769162 41.1188028,92.762162 L41.1188028,92.762162 Z M36.293662,94.5383732 C33.5314437,94.1957183 31.3985915,91.8460845 31.3985915,88.9929577 C31.3985915,88.5593944 31.4545352,88.1398169 31.5454437,87.7412183 L34.8950704,91.0908451 L34.8950704,91.7901408 C34.8950704,92.5625616 35.5212412,93.1887324 36.293662,93.1887324 L36.293662,94.5383732 Z M36.9929577,82 C33.1308538,82 30,85.1308538 30,88.9929577 C30,90.8476055 30.7367559,92.6262916 32.0481899,93.9377256 C33.3596239,95.2491596 35.13831,95.9859155 36.9929577,95.9859155 C38.8476055,95.9859155 40.6262916,95.2491596 41.9377256,93.9377256 C43.2491596,92.6262916 43.9859155,90.8476055 43.9859155,88.9929577 C43.9859155,87.13831 43.2491596,85.3596239 41.9377256,84.0481899 C40.6262916,82.7367559 38.8476055,82 36.9929577,82 Z" id="Shape"></path>
        </g>
    </g>
</svg>