<?xml version="1.0" encoding="UTF-8"?>
<svg width="16px" height="16px" viewBox="0 0 16 16" version="1.1" xmlns="http://www.w3.org/2000/svg" xmlns:xlink="http://www.w3.org/1999/xlink">
    <!-- Generator: Sketch 47.1 (45422) - http://www.bohemiancoding.com/sketch -->
    <title>Github</title>
    <desc>Created with Sketch.</desc>
    <defs></defs>
    <g id="Assets" stroke="none" stroke-width="1" fill="none" fill-rule="evenodd">
        <g id="Artboard" fill="#FFFFFF">
            <path d="M7.9995,0 C3.582,0 0,3.67220157 0,8.20311284 C0,11.8266115 2.292,14.9010485 5.4715,15.9858424 C5.8715,16.0612038 6.0175,15.8079485 6.0175,15.5905796 C6.0175,15.3957679 6.0105,14.8800294 6.0065,14.1956249 C3.781,14.6913696 3.3115,13.0959638 3.3115,13.0959638 C2.948,12.1485635 2.4235,11.8963336 2.4235,11.8963336 C1.697,11.3872597 2.4785,11.3975129 2.4785,11.3975129 C3.281,11.4554438 3.7035,12.2428934 3.7035,12.2428934 C4.4175,13.4963533 5.576,13.1344135 6.032,12.9242219 C6.1045,12.3941289 6.3115,12.0327018 6.54,11.8276368 C4.7635,11.6205211 2.896,10.9171482 2.896,7.77401432 C2.896,6.87839291 3.2075,6.14631084 3.7195,5.57264149 C3.637,5.36501318 3.3625,4.53142393 3.7975,3.40202842 C3.7975,3.40202842 4.4695,3.18158354 5.9975,4.24279494 C6.636,4.06079975 7.32,3.97005849 8.0005,3.96646985 C8.68,3.97005849 9.3645,4.06079975 10.0035,4.24279494 C11.5305,3.18158354 12.201,3.40202842 12.201,3.40202842 C12.6375,4.53142393 12.363,5.36501318 12.2805,5.57264149 C12.7935,6.14631084 13.103,6.87839291 13.103,7.77401432 C13.103,10.9248381 11.2325,11.6184705 9.4505,11.8214848 C9.7375,12.0747401 9.9935,12.5750987 9.9935,13.3405039 C9.9935,14.437089 9.9835,15.3214318 9.9835,15.5905796 C9.9835,15.8099992 10.1275,16.0653051 10.5335,15.9848171 C13.71,14.8979726 16,11.8255861 16,8.20311284 C16,3.67220157 12.418,0 7.9995,0" id="Github"></path>
        </g>
    </g>
</svg>