<?xml version="1.0" encoding="UTF-8"?>
<svg width="16px" height="15px" viewBox="0 0 16 15" version="1.1" xmlns="http://www.w3.org/2000/svg" xmlns:xlink="http://www.w3.org/1999/xlink">
    <!-- Generator: Sketch 47.1 (45422) - http://www.bohemiancoding.com/sketch -->
    <title>LinkedIn</title>
    <desc>Created with Sketch.</desc>
    <defs></defs>
    <g id="Assets" stroke="none" stroke-width="1" fill="none" fill-rule="evenodd">
        <g id="Artboard" transform="translate(0.000000, -97.000000)" fill="#FFFFFF">
            <path d="M16,112 L12.4637817,112 L12.4637817,106.7269 C12.4637817,105.346673 11.9106303,104.404431 10.6942615,104.404431 C9.76387582,104.404431 9.24647225,105.040277 9.0056444,105.65307 C8.91533396,105.873023 8.92944497,106.17942 8.92944497,106.485817 L8.92944497,112 L5.4261524,112 C5.4261524,112 5.47130762,102.659218 5.4261524,101.810143 L8.92944497,101.810143 L8.92944497,103.409362 C9.1364064,102.710124 10.2558796,101.712173 12.042333,101.712173 C14.2587018,101.712173 16,103.177883 16,106.334059 L16,112 L16,112 Z M1.88334901,100.53557 L1.8607714,100.53557 C0.731890875,100.53557 0,99.7566114 0,98.7692258 C0,97.7626305 0.753527752,97 1.90498589,97 C3.05550329,97 3.76293509,97.7607095 3.7855127,98.7663444 C3.7855127,99.7537299 3.05550329,100.53557 1.88334901,100.53557 L1.88334901,100.53557 L1.88334901,100.53557 Z M0.403574788,101.810143 L3.52210724,101.810143 L3.52210724,112 L0.403574788,112 L0.403574788,101.810143 L0.403574788,101.810143 Z" id="LinkedIn"></path>
        </g>
    </g>
</svg>