<?xml version="1.0" encoding="UTF-8"?>
<svg width="14px" height="14px" viewBox="0 0 14 14" version="1.1" xmlns="http://www.w3.org/2000/svg" xmlns:xlink="http://www.w3.org/1999/xlink">
    <!-- Generator: Sketch 47.1 (45422) - http://www.bohemiancoding.com/sketch -->
    <title>Shape</title>
    <desc>Created with Sketch.</desc>
    <defs></defs>
    <g id="Assets" stroke="none" stroke-width="1" fill="none" fill-rule="evenodd">
        <g id="Artboard" transform="translate(-30.000000, -138.000000)" fill-rule="nonzero" fill="#E4E5E8">
            <path d="M32.8155556,144.058889 C33.9355556,146.26 35.74,148.064444 37.9411111,149.184444 L39.6522222,147.473333 C39.87,147.255556 40.1733333,147.193333 40.4455556,147.278889 C41.3166667,147.566667 42.25,147.722222 43.2222222,147.722222 C43.651777,147.722222 44,148.070445 44,148.5 L44,151.222222 C44,151.651777 43.651777,152 43.2222222,152 C35.9197905,152 30,146.080209 30,138.777778 C30,138.571498 30.0819442,138.373667 30.2278058,138.227806 C30.3736675,138.081944 30.5714983,138 30.7777778,138 L33.5,138 C33.9295548,138 34.2777778,138.348223 34.2777778,138.777778 C34.2777778,139.75 34.4333333,140.683333 34.7211111,141.554444 C34.8066667,141.826667 34.7444444,142.13 34.5266667,142.347778 L32.8155556,144.058889 Z" id="Shape"></path>
        </g>
    </g>
</svg>