<?xml version="1.0" encoding="UTF-8"?>
<svg width="16px" height="15px" viewBox="0 0 16 15" version="1.1" xmlns="http://www.w3.org/2000/svg" xmlns:xlink="http://www.w3.org/1999/xlink">
    <!-- Generator: Sketch 47.1 (45422) - http://www.bohemiancoding.com/sketch -->
    <title>LinkedIn-black</title>
    <desc>Created with Sketch.</desc>
    <defs></defs>
    <g id="Registation-flow" stroke="none" stroke-width="1" fill="none" fill-rule="evenodd">
        <g id="Step-1" transform="translate(-443.000000, -381.000000)" fill="#FFFFFF">
            <g id="Group-4" transform="translate(406.000000, 160.000000)">
                <path d="M53,235.545455 L49.4637817,235.545455 L49.4637817,230.432146 C49.4637817,229.093744 48.9106303,228.180054 47.6942615,228.180054 C46.7638758,228.180054 46.2464722,228.796632 46.0056444,229.390856 C45.915334,229.604144 45.929445,229.901256 45.929445,230.198368 L45.929445,235.545455 L42.4261524,235.545455 C42.4261524,235.545455 42.4713076,226.487726 42.4261524,225.664381 L45.929445,225.664381 L45.929445,227.215139 C46.1364064,226.53709 47.2558796,225.56938 49.042333,225.56938 C51.2587018,225.56938 53,226.990674 53,230.051209 L53,235.545455 L53,235.545455 Z M38.883349,224.428432 L38.8607714,224.428432 C37.7318909,224.428432 37,223.673078 37,222.715613 C37,221.73952 37.7535278,221 38.9049859,221 C40.0555033,221 40.7629351,221.737658 40.7855127,222.712819 C40.7855127,223.670284 40.0555033,224.428432 38.883349,224.428432 L38.883349,224.428432 L38.883349,224.428432 Z M37.4035748,225.664381 L40.5221072,225.664381 L40.5221072,235.545455 L37.4035748,235.545455 L37.4035748,225.664381 L37.4035748,225.664381 Z" id="LinkedIn"></path>
            </g>
        </g>
    </g>
</svg>